<?xml version="1.0" standalone="no"?>
<!DOCTYPE svg PUBLIC "-//W3C//DTD SVG 20010904//EN"
 "http://www.w3.org/TR/2001/REC-SVG-20010904/DTD/svg10.dtd">
<svg version="1.0" xmlns="http://www.w3.org/2000/svg"
 width="272.000000pt" height="402.000000pt" viewBox="0 0 272.000000 402.000000"
 preserveAspectRatio="xMidYMid meet">

<g transform="translate(0.000000,402.000000) scale(0.100000,-0.100000)"
fill="#000000" stroke="none">
<path d="M1491 3892 c-65 -72 -131 -166 -131 -187 0 -7 -7 -18 -15 -25 -8 -7
-15 -20 -15 -29 0 -10 -7 -26 -15 -37 -8 -10 -15 -25 -15 -32 0 -8 -6 -28 -14
-45 -24 -56 -56 -163 -56 -189 0 -14 -7 -42 -15 -61 -8 -20 -15 -59 -15 -87 0
-79 -21 -69 -175 85 -129 129 -153 144 -120 76 8 -17 22 -45 30 -62 8 -17 15
-37 15 -46 0 -8 6 -27 14 -41 16 -33 34 -83 48 -137 6 -22 14 -44 19 -50 4 -5
10 -28 14 -50 4 -22 11 -44 15 -50 5 -5 13 -37 18 -70 6 -33 15 -78 21 -100 6
-22 11 -82 11 -133 0 -154 -35 -211 -238 -390 -33 -29 -77 -64 -98 -78 -20
-14 -43 -32 -51 -39 -8 -8 -42 -36 -76 -61 -34 -26 -67 -52 -72 -58 -6 -6 -39
-36 -75 -66 -123 -104 -231 -218 -294 -314 -50 -75 -106 -183 -106 -203 0 -10
-7 -27 -15 -37 -8 -11 -15 -34 -15 -50 0 -17 -7 -53 -15 -80 -19 -63 -19 -157
0 -220 8 -27 15 -62 15 -77 0 -41 53 -163 108 -249 40 -62 196 -220 218 -220
8 0 14 -5 14 -10 0 -6 10 -15 22 -20 13 -6 37 -19 53 -30 17 -10 55 -31 85
-45 30 -14 67 -32 82 -40 14 -8 33 -15 41 -15 9 0 28 -6 44 -14 40 -20 92 -37
138 -46 22 -4 57 -15 78 -24 32 -14 37 -21 37 -49 0 -22 8 -40 23 -54 33 -30
104 -63 135 -63 15 0 43 -5 62 -11 61 -19 267 -21 340 -3 127 30 184 69 182
125 -1 27 5 32 44 50 25 10 52 19 60 19 46 0 310 113 399 171 17 10 38 22 48
25 9 4 17 10 17 14 0 4 15 17 33 27 53 32 127 104 178 173 27 36 53 70 59 77
5 7 10 15 10 19 0 4 9 25 19 48 43 93 51 116 51 149 0 19 7 54 15 77 19 54 19
153 0 216 -8 27 -15 63 -15 80 0 16 -7 39 -15 50 -8 10 -15 27 -15 37 0 10
-16 48 -36 85 -97 179 -198 294 -419 477 -60 50 -118 99 -130 110 -12 11 -44
38 -71 60 -27 21 -51 42 -54 45 -3 3 -27 23 -54 45 -28 22 -64 53 -81 70 -17
16 -49 46 -72 67 -23 20 -44 46 -48 57 -3 12 -10 21 -15 21 -5 0 -12 15 -15
33 -4 17 -12 37 -17 44 -22 28 6 349 38 420 8 17 14 44 14 60 1 15 7 39 15 53
8 14 14 39 15 56 0 16 5 35 11 41 6 6 15 29 19 50 10 45 27 97 46 136 8 16 14
36 14 46 0 9 7 26 15 37 8 10 15 28 15 40 0 11 7 29 15 40 19 25 19 44 0 44
-17 0 -215 -192 -215 -208 0 -6 -13 -30 -29 -54 -15 -24 -31 -55 -35 -70 -7
-30 -27 -36 -43 -15 -33 41 -44 290 -18 390 8 32 15 75 15 95 1 20 7 48 15 62
8 14 14 38 15 53 0 15 6 40 14 55 16 33 28 102 17 102 -5 0 -36 -30 -70 -68z"/>
</g>
</svg>
